M48
;Layer_Color=9474304
;FILE_FORMAT=2:5
INCH,LZ
;TYPE=PLATED
T1F00S00C0.01400
T2F00S00C0.03700
T3F00S00C0.05000
T4F00S00C0.09200
T5F00S00C0.14000
%
T01
X01118Y0105
X01224Y0117
X01284Y01113
X01422Y0105652
X01496Y01042
X01509Y012709
X01426Y01305
X01346Y01495
X01477Y0153
X01193Y01354
X01563Y01272
X01671Y01291
X01715Y01259
X01778Y01161
X01743Y01043
X02009Y01263
X02112Y01317
X0206954Y0142046
X01957Y01441
X01909Y01433
X0191Y01521
X02393Y01549
X0201Y01659
X01928Y01671
X01817Y01648
X0166Y01642
X01609Y01658
Y01616
X01611Y01829
X01679Y01825
X01735Y018
X01939Y01795
X01991Y01796
X02038Y01797
X02088Y01746
X02111Y02009
X01523Y01816
X01354Y01881
X01362Y01735
X014218Y016582
X0117546Y0160846
X012075Y01933
X01098Y0202
T02
X02185Y01396
Y0149443
Y0157317
Y0167159
T03
X011Y01133
Y01233
Y01333
Y01433
Y01533
X01611Y0197
X01711
X01811
X01911
X02011
X011Y01933
Y01833
Y01733
Y01633
T04
X0229169Y0127513
Y0179246
T05
X02386Y01112
Y01954
M30
