%FSLAX25Y25*%
%MOIN*%
G70*
G01*
G75*
%ADD10R,0.04000X0.03500*%
%ADD11R,0.03150X0.03543*%
%ADD12R,0.04600X0.04000*%
%ADD13R,0.21654X0.07874*%
%ADD14R,0.03500X0.04000*%
%ADD15R,0.02362X0.07480*%
%ADD16R,0.04500X0.02700*%
%ADD17R,0.05500X0.05100*%
%ADD18C,0.02000*%
%ADD19C,0.01890*%
%ADD20C,0.01000*%
%ADD21C,0.06000*%
%ADD22C,0.14000*%
%ADD23R,0.09000X0.09000*%
%ADD24C,0.09000*%
%ADD25R,0.09000X0.09000*%
%ADD26C,0.16000*%
%ADD27C,0.02800*%
%ADD28C,0.00984*%
%ADD29C,0.00787*%
%ADD30C,0.00800*%
%ADD31R,0.04800X0.04300*%
%ADD32R,0.03950X0.04343*%
%ADD33R,0.05400X0.04800*%
%ADD34R,0.22453X0.08674*%
%ADD35R,0.04300X0.04800*%
%ADD36R,0.03162X0.08280*%
%ADD37R,0.05300X0.03500*%
%ADD38R,0.06300X0.05900*%
%ADD39C,0.06800*%
%ADD40C,0.14800*%
%ADD41R,0.09800X0.09800*%
%ADD42C,0.09800*%
%ADD43R,0.09800X0.09800*%
%ADD44C,0.16800*%
%ADD45C,0.00500*%
%ADD46C,0.00667*%
D20*
X100000Y100000D02*
X249600D01*
Y206600D01*
X100000D02*
X249600D01*
X100000Y100000D02*
Y206600D01*
D45*
X216650Y149443D02*
X220350D01*
X218500Y147593D02*
Y151293D01*
X216650Y157317D02*
X220350D01*
X218500Y155467D02*
Y159167D01*
X216650Y167159D02*
X220350D01*
X218500Y165309D02*
Y169009D01*
X216650Y139600D02*
X220350D01*
X218500Y137750D02*
Y141450D01*
X224569Y127513D02*
X233769D01*
X229169Y122913D02*
Y132113D01*
X224569Y179246D02*
X233769D01*
X229169Y174646D02*
Y183846D01*
X198600Y197000D02*
X203600D01*
X201100Y194500D02*
Y199500D01*
X188600Y197000D02*
X193600D01*
X191100Y194500D02*
Y199500D01*
X178600Y197000D02*
X183600D01*
X181100Y194500D02*
Y199500D01*
X168600Y197000D02*
X173600D01*
X171100Y194500D02*
Y199500D01*
X158600Y197000D02*
X163600D01*
X161100Y194500D02*
Y199500D01*
X107500Y133300D02*
X112500D01*
X110000Y130800D02*
Y135800D01*
X107500Y143300D02*
X112500D01*
X110000Y140800D02*
Y145800D01*
X107500Y193300D02*
X112500D01*
X110000Y190800D02*
Y195800D01*
X107500Y183300D02*
X112500D01*
X110000Y180800D02*
Y185800D01*
X107500Y173300D02*
X112500D01*
X110000Y170800D02*
Y175800D01*
X107500Y163300D02*
X112500D01*
X110000Y160800D02*
Y165800D01*
X107500Y153300D02*
X112500D01*
X110000Y150800D02*
Y155800D01*
X107500Y123300D02*
X112500D01*
X110000Y120800D02*
Y125800D01*
X107500Y113300D02*
X112500D01*
X110000Y110800D02*
Y115800D01*
X231600Y111200D02*
X245600D01*
X238600Y104200D02*
Y118200D01*
X231600Y195400D02*
X245600D01*
X238600Y188400D02*
Y202400D01*
X203100Y179700D02*
X204500D01*
X203800Y179000D02*
Y180400D01*
X210500Y131700D02*
X211900D01*
X211200Y131000D02*
Y132400D01*
X135500Y173500D02*
X136900D01*
X136200Y172800D02*
Y174200D01*
X134700Y188100D02*
X136100D01*
X135400Y187400D02*
Y188800D01*
X151600Y181600D02*
X153000D01*
X152300Y180900D02*
Y182300D01*
X118600Y135400D02*
X120000D01*
X119300Y134700D02*
Y136100D01*
X147000Y153000D02*
X148400D01*
X147700Y152300D02*
Y153700D01*
X172800Y180000D02*
X174200D01*
X173500Y179300D02*
Y180700D01*
X165300Y164200D02*
X166700D01*
X166000Y163500D02*
Y164900D01*
X181000Y164800D02*
X182400D01*
X181700Y164100D02*
Y165500D01*
X238600Y154900D02*
X240000D01*
X239300Y154200D02*
Y155600D01*
X210400Y200900D02*
X211800D01*
X211100Y200200D02*
Y201600D01*
X109100Y202000D02*
X110500D01*
X109800Y201300D02*
Y202700D01*
X111100Y105000D02*
X112500D01*
X111800Y104300D02*
Y105700D01*
X148900Y104200D02*
X150300D01*
X149600Y103500D02*
Y104900D01*
X173600Y104300D02*
X175000D01*
X174300Y103600D02*
Y105000D01*
X155600Y127200D02*
X157000D01*
X156300Y126500D02*
Y127900D01*
X170800Y125900D02*
X172200D01*
X171500Y125200D02*
Y126600D01*
X177100Y116100D02*
X178500D01*
X177800Y115400D02*
Y116800D01*
X121700Y117000D02*
X123100D01*
X122400Y116300D02*
Y117700D01*
X141500Y105652D02*
X142900D01*
X142200Y104952D02*
Y106352D01*
X200300Y165900D02*
X201700D01*
X201000Y165200D02*
Y166600D01*
X167200Y182500D02*
X168600D01*
X167900Y181800D02*
Y183200D01*
X160200Y165800D02*
X161600D01*
X160900Y165100D02*
Y166500D01*
X193200Y179500D02*
X194600D01*
X193900Y178800D02*
Y180200D01*
X116846Y160846D02*
X118246D01*
X117546Y160146D02*
Y161546D01*
X192100Y167100D02*
X193500D01*
X192800Y166400D02*
Y167800D01*
X141900Y130500D02*
X143300D01*
X142600Y129800D02*
Y131200D01*
X198400Y179600D02*
X199800D01*
X199100Y178900D02*
Y180300D01*
X141480Y165820D02*
X142880D01*
X142180Y165120D02*
Y166520D01*
X190300Y152100D02*
X191700D01*
X191000Y151400D02*
Y152800D01*
X120050Y193300D02*
X121450D01*
X120750Y192600D02*
Y194000D01*
X195000Y144100D02*
X196400D01*
X195700Y143400D02*
Y144800D01*
X133900Y149500D02*
X135300D01*
X134600Y148800D02*
Y150200D01*
X160200Y161600D02*
X161600D01*
X160900Y160900D02*
Y162300D01*
X160400Y182900D02*
X161800D01*
X161100Y182200D02*
Y183600D01*
X208100Y174600D02*
X209500D01*
X208800Y173900D02*
Y175300D01*
X206254Y142046D02*
X207654D01*
X206954Y141346D02*
Y142746D01*
X127700Y111300D02*
X129100D01*
X128400Y110600D02*
Y112000D01*
X150200Y127090D02*
X151600D01*
X150900Y126390D02*
Y127790D01*
X166400Y129100D02*
X167800D01*
X167100Y128400D02*
Y129800D01*
X200200Y126300D02*
X201600D01*
X200900Y125600D02*
Y127000D01*
X190200Y143300D02*
X191600D01*
X190900Y142600D02*
Y144000D01*
M02*
