%FSLAX25Y25*%
%MOIN*%
G70*
G01*
G75*
G04 Layer_Physical_Order=1*
G04 Layer_Color=255*
%ADD10R,0.04000X0.03500*%
%ADD11R,0.03150X0.03543*%
%ADD12R,0.04600X0.04000*%
%ADD13R,0.21654X0.07874*%
%ADD14R,0.03500X0.04000*%
%ADD15R,0.02362X0.07480*%
%ADD16R,0.04500X0.02700*%
%ADD17R,0.05500X0.05100*%
%ADD18C,0.02000*%
%ADD19C,0.01890*%
%ADD20C,0.01000*%
%ADD21C,0.06000*%
%ADD22C,0.14000*%
%ADD23R,0.09000X0.09000*%
%ADD24C,0.09000*%
%ADD25R,0.09000X0.09000*%
%ADD26C,0.16000*%
%ADD27C,0.02800*%
G36*
X235964Y204005D02*
X235139Y203755D01*
X233576Y202919D01*
X232205Y201795D01*
X231081Y200424D01*
X230245Y198861D01*
X229730Y197164D01*
X229655Y196400D01*
X238601D01*
Y195401D01*
X239600D01*
Y186455D01*
X240364Y186530D01*
X242061Y187045D01*
X243624Y187881D01*
X244995Y189005D01*
X246119Y190376D01*
X246955Y191939D01*
X247005Y192105D01*
X247500Y192032D01*
Y114568D01*
X247005Y114495D01*
X246955Y114661D01*
X246119Y116224D01*
X244995Y117595D01*
X243624Y118719D01*
X242061Y119555D01*
X240364Y120070D01*
X239600Y120145D01*
Y111199D01*
X238601D01*
Y110200D01*
X229655D01*
X229730Y109436D01*
X230245Y107739D01*
X231081Y106176D01*
X232205Y104805D01*
X233576Y103681D01*
X235139Y102845D01*
X236294Y102495D01*
X236221Y102000D01*
X189956D01*
Y102000D01*
Y102350D01*
X189956Y102354D01*
X189956Y102354D01*
X189956D01*
Y107850D01*
X189939D01*
Y114363D01*
X206615D01*
Y124237D01*
X202938D01*
X202703Y124678D01*
X203161Y125364D01*
X203347Y126300D01*
X203161Y127236D01*
X202883Y127652D01*
Y131159D01*
X203081D01*
Y140639D01*
X198719D01*
Y131159D01*
X198917D01*
Y127652D01*
X198639Y127236D01*
X198453Y126300D01*
X198639Y125364D01*
X199097Y124678D01*
X198862Y124237D01*
X187883D01*
Y131159D01*
X188081D01*
Y140639D01*
X183719D01*
Y131159D01*
X183917D01*
Y124237D01*
X182961D01*
Y114363D01*
X185861D01*
Y107850D01*
X183956D01*
D01*
D01*
X183956Y107850D01*
X183600D01*
Y107850D01*
X181600D01*
Y105099D01*
X180601D01*
Y104100D01*
X177600D01*
Y102354D01*
X177600Y102354D01*
X177600D01*
X177600Y102350D01*
X177250Y102000D01*
X170756D01*
Y102000D01*
Y102350D01*
X170756Y102354D01*
X170756Y102354D01*
X170756D01*
Y104100D01*
X167755D01*
Y105099D01*
X166756D01*
Y107850D01*
X164756D01*
D01*
D01*
X164756Y107850D01*
X164400D01*
Y107850D01*
X158400D01*
X158400Y107850D01*
Y107850D01*
X158212Y107772D01*
X157851Y108133D01*
Y114363D01*
X167639D01*
Y117261D01*
X172000D01*
X172780Y117416D01*
X173442Y117858D01*
X173442Y117858D01*
X173442Y117858D01*
X182342Y126758D01*
X182784Y127420D01*
X182939Y128200D01*
X182883Y128482D01*
Y131159D01*
X183081D01*
Y140639D01*
X178719D01*
Y131159D01*
X178917D01*
Y129101D01*
X171155Y121339D01*
X167639D01*
Y124237D01*
X151409D01*
X151399Y124331D01*
X151399D01*
X151364Y124689D01*
X151364D01*
X151360Y124735D01*
X151836Y124829D01*
X152630Y125360D01*
X153161Y126154D01*
X153347Y127090D01*
X153161Y128027D01*
X152883Y128442D01*
Y131159D01*
X153081D01*
Y140639D01*
X148719D01*
Y131159D01*
X148917D01*
Y128442D01*
X148639Y128027D01*
X148453Y127090D01*
X148639Y126154D01*
X149170Y125360D01*
X149964Y124829D01*
X150440Y124735D01*
X150391Y124237D01*
X144239D01*
Y125300D01*
X144239Y125300D01*
X144084Y126080D01*
X143642Y126742D01*
X142506Y127878D01*
X142600Y128053D01*
X143536Y128239D01*
X144330Y128770D01*
X144861Y129564D01*
X145047Y130500D01*
X144993Y130772D01*
X145310Y131159D01*
X148081D01*
Y140639D01*
X147756D01*
X147732Y140759D01*
X147302Y141402D01*
X145702Y143002D01*
X145059Y143432D01*
X144300Y143583D01*
X138083D01*
X137800Y143639D01*
X137020Y143484D01*
X136358Y143042D01*
X132093Y138777D01*
X131655Y138958D01*
D01*
X131631Y138968D01*
Y140400D01*
X130056D01*
Y138628D01*
X131291D01*
X131301Y138604D01*
D01*
X131483Y138166D01*
X126458Y133142D01*
X126016Y132480D01*
X125861Y131700D01*
Y126700D01*
X120200D01*
Y125739D01*
X116900D01*
X116900Y125739D01*
X116120Y125584D01*
X115753Y125339D01*
X115109D01*
X114804Y126074D01*
X113923Y127223D01*
X112774Y128104D01*
Y128496D01*
X113923Y129377D01*
X114804Y130526D01*
X115358Y131864D01*
X115548Y133300D01*
X115358Y134736D01*
X114804Y136074D01*
X113923Y137223D01*
X112774Y138104D01*
Y138496D01*
X113923Y139377D01*
X114804Y140526D01*
X115358Y141864D01*
X115548Y143300D01*
X115358Y144736D01*
X114804Y146074D01*
X113923Y147223D01*
X112774Y148104D01*
Y148496D01*
X113923Y149377D01*
X114804Y150526D01*
X115358Y151864D01*
X115548Y153300D01*
X115358Y154736D01*
X115054Y155470D01*
X118091Y158507D01*
X118482Y158585D01*
X119276Y159116D01*
X119807Y159910D01*
X119993Y160846D01*
X119807Y161782D01*
X119276Y162576D01*
X118482Y163107D01*
X117546Y163293D01*
X116610Y163107D01*
X115921Y162646D01*
X115496Y162911D01*
X115548Y163300D01*
X115358Y164736D01*
X114804Y166074D01*
X113923Y167223D01*
X112774Y168104D01*
Y168496D01*
X113923Y169377D01*
X114804Y170526D01*
X115118Y171284D01*
X115780Y171416D01*
X116442Y171858D01*
X120242Y175658D01*
X120491Y176031D01*
X120969Y175886D01*
Y171188D01*
X126119D01*
Y171188D01*
X126119D01*
X126119Y171188D01*
X126481D01*
Y171188D01*
X128056D01*
Y173959D01*
Y176732D01*
X126481D01*
D01*
D01*
X126481Y176732D01*
X126119D01*
Y176732D01*
X125583D01*
Y177800D01*
X125428Y178580D01*
X125139Y179013D01*
Y179350D01*
X126100D01*
Y179350D01*
X126100D01*
X126100Y179350D01*
X126456D01*
Y179350D01*
X132456D01*
Y180061D01*
X134700D01*
X135480Y180216D01*
X136142Y180658D01*
X136945Y181461D01*
X137844D01*
Y180750D01*
X138805D01*
Y178356D01*
X138861Y178075D01*
X138861D01*
X138719Y178041D01*
X138719D01*
Y168561D01*
X141148D01*
X141211Y168246D01*
X140894Y167859D01*
X132456D01*
Y168570D01*
X126456D01*
D01*
D01*
X126456Y168570D01*
X126100D01*
Y168570D01*
X120100D01*
Y163070D01*
X121061D01*
Y161944D01*
X121216Y161164D01*
X121397Y160893D01*
X121162Y160452D01*
X120969D01*
Y154908D01*
X126119D01*
Y154908D01*
X126119D01*
X126119Y154908D01*
X126481D01*
Y154908D01*
X128056D01*
Y157679D01*
Y160452D01*
X126481D01*
D01*
D01*
X126481Y160452D01*
X126119D01*
Y160452D01*
X125583D01*
Y161500D01*
X125428Y162280D01*
X125139Y162713D01*
Y163070D01*
X126100D01*
Y163070D01*
X126100D01*
X126100Y163070D01*
X126456D01*
Y163070D01*
X132456D01*
Y163781D01*
X140912D01*
X141244Y163559D01*
X142180Y163373D01*
X143116Y163559D01*
X143910Y164090D01*
X144441Y164884D01*
X144627Y165820D01*
X144441Y166756D01*
X143910Y167550D01*
X143116Y168081D01*
X143081Y168088D01*
Y168561D01*
X143081D01*
Y178041D01*
X142939D01*
Y178300D01*
X142939Y178300D01*
X142939Y178300D01*
Y178300D01*
X142939D01*
X142939Y178300D01*
X142883Y178580D01*
Y180750D01*
X143844D01*
Y180750D01*
X143844D01*
X143844Y180750D01*
X144200D01*
Y180750D01*
X146200D01*
Y183499D01*
Y186250D01*
X144200D01*
D01*
D01*
X144200Y186250D01*
X143844D01*
Y186250D01*
X137844D01*
Y185539D01*
X136100D01*
X135320Y185384D01*
X134658Y184942D01*
X133855Y184139D01*
X133039D01*
Y186900D01*
Y191850D01*
X138550D01*
Y196550D01*
X133039D01*
Y197455D01*
X135034Y199450D01*
X138550D01*
Y199761D01*
X139950D01*
Y198156D01*
X139950Y198156D01*
X139950Y197800D01*
X139950D01*
Y195800D01*
X145450D01*
Y197800D01*
D01*
Y197800D01*
X145450Y197800D01*
Y198156D01*
X145450D01*
Y198613D01*
X145912Y198804D01*
X154261Y190455D01*
Y182000D01*
X154416Y181220D01*
X154858Y180558D01*
X155098Y180398D01*
X156993Y178503D01*
X156801Y178041D01*
X153719D01*
Y168561D01*
X158081D01*
Y177026D01*
X158267Y177178D01*
X158719Y176964D01*
Y168561D01*
X159926D01*
X159961Y168210D01*
X159625Y167839D01*
X158945D01*
X158164Y167684D01*
X157899Y167507D01*
X157503Y167242D01*
X157503Y167242D01*
X154458Y164197D01*
X154016Y163536D01*
X153861Y162755D01*
X153917Y162473D01*
Y140639D01*
X153719D01*
Y131159D01*
X158081D01*
Y140639D01*
X157883D01*
Y161623D01*
X158312Y161880D01*
X158490Y161785D01*
X158453Y161600D01*
X158639Y160664D01*
X158917Y160248D01*
Y140639D01*
X158719D01*
Y131159D01*
X163081D01*
Y140639D01*
X162883D01*
Y160248D01*
X163161Y160664D01*
X163347Y161600D01*
X163161Y162536D01*
X162630Y163330D01*
X162451Y163450D01*
Y163950D01*
X162630Y164070D01*
X163161Y164864D01*
X163347Y165800D01*
X163161Y166736D01*
X162630Y167530D01*
X161836Y168061D01*
X161825Y168063D01*
X161874Y168561D01*
X163081D01*
Y177217D01*
X163579D01*
X163719Y177077D01*
Y168561D01*
X168081D01*
Y178041D01*
X167815D01*
X167732Y178459D01*
X167302Y179102D01*
X166361Y180044D01*
X166678Y180430D01*
X166964Y180239D01*
X167900Y180053D01*
X168836Y180239D01*
X169630Y180770D01*
X170161Y181564D01*
X170347Y182500D01*
X170161Y183436D01*
X169939Y183768D01*
Y189855D01*
X171602Y191519D01*
X172536Y191642D01*
X173874Y192196D01*
X175023Y193077D01*
X175850Y194156D01*
X176350D01*
X177177Y193077D01*
X178326Y192196D01*
X179664Y191642D01*
X180100Y191584D01*
Y197001D01*
X182100D01*
Y191584D01*
X182536Y191642D01*
X183874Y192196D01*
X185023Y193077D01*
X185850Y194156D01*
X186350D01*
X187177Y193077D01*
X188326Y192196D01*
X189664Y191642D01*
X191100Y191453D01*
X192029Y191575D01*
X192405Y191245D01*
Y187750D01*
X191444D01*
Y182250D01*
X192866D01*
X192964Y181761D01*
X192170Y181230D01*
X191639Y180436D01*
X191453Y179500D01*
X191639Y178564D01*
X191694Y178482D01*
X191458Y178041D01*
X188719D01*
Y168561D01*
X189004D01*
X189068Y168241D01*
X189498Y167598D01*
X190442Y166654D01*
X190539Y166164D01*
X191070Y165370D01*
X191864Y164839D01*
X192800Y164653D01*
X193736Y164839D01*
X194530Y165370D01*
X195061Y166164D01*
X195247Y167100D01*
X195061Y168036D01*
X195005Y168120D01*
X195241Y168561D01*
X198081D01*
Y176962D01*
X198267Y177114D01*
X198719Y176900D01*
Y168561D01*
X198917D01*
Y167103D01*
X198739Y166836D01*
X198553Y165900D01*
X198739Y164964D01*
X199270Y164170D01*
X200064Y163639D01*
X201000Y163453D01*
X201936Y163639D01*
X202730Y164170D01*
X203261Y164964D01*
X203447Y165900D01*
X203261Y166836D01*
X202883Y167402D01*
Y168561D01*
X203081D01*
Y178041D01*
X201475D01*
X201239Y178482D01*
X201361Y178664D01*
X201439Y179055D01*
X202242Y179858D01*
X202684Y180520D01*
X202839Y181300D01*
X202839Y181300D01*
X202839Y181300D01*
Y181300D01*
Y182250D01*
X203800D01*
Y187750D01*
X202839D01*
Y191103D01*
X202984Y191320D01*
X203020Y191500D01*
X206600D01*
Y202500D01*
X195600D01*
Y200948D01*
X195126Y200787D01*
X195023Y200923D01*
X193874Y201804D01*
X192536Y202358D01*
X191100Y202548D01*
X190425Y202459D01*
X188846Y204038D01*
X189037Y204500D01*
X235891D01*
X235964Y204005D01*
D02*
G37*
G36*
X138719Y138982D02*
Y131159D01*
X138917D01*
X138917Y131159D01*
D01*
X138917Y131158D01*
Y131100D01*
X138918Y131095D01*
X138920Y130994D01*
X138920Y130994D01*
X138920D01*
X139003Y130670D01*
X139019Y130587D01*
X138702Y130200D01*
X135650D01*
D01*
X135650D01*
X135500Y130350D01*
Y130700D01*
X130437D01*
X130246Y131162D01*
X138257Y139173D01*
X138719Y138982D01*
D02*
G37*
G36*
X167177Y193077D02*
X167191Y192875D01*
X166458Y192142D01*
X166016Y191480D01*
X165861Y190700D01*
Y183768D01*
X165639Y183436D01*
X165453Y182500D01*
X165639Y181564D01*
X165956Y181089D01*
X165603Y180735D01*
X165159Y181032D01*
X164400Y181183D01*
X163370D01*
X163134Y181624D01*
X163361Y181964D01*
X163547Y182900D01*
X163361Y183836D01*
X163139Y184168D01*
Y191892D01*
X163874Y192196D01*
X165023Y193077D01*
X165850Y194156D01*
X166350D01*
X167177Y193077D01*
D02*
G37*
G36*
X132050Y204150D02*
X132050D01*
Y202234D01*
X129558Y199742D01*
X129116Y199080D01*
X128961Y198300D01*
Y188939D01*
X120600D01*
X119820Y188784D01*
X119555Y188607D01*
X119158Y188342D01*
X119158Y188342D01*
X117358Y186542D01*
X116916Y185880D01*
X116761Y185100D01*
Y177945D01*
X115110Y176293D01*
X114611Y176326D01*
X113923Y177223D01*
X112774Y178104D01*
Y178496D01*
X113923Y179377D01*
X114804Y180526D01*
X115358Y181864D01*
X115416Y182300D01*
X104584D01*
X104642Y181864D01*
X105196Y180526D01*
X106077Y179377D01*
X107156Y178550D01*
Y178050D01*
X106077Y177223D01*
X105196Y176074D01*
X104642Y174736D01*
X104453Y173300D01*
X104642Y171864D01*
X105196Y170526D01*
X106077Y169377D01*
X107156Y168550D01*
Y168050D01*
X106077Y167223D01*
X105196Y166074D01*
X104642Y164736D01*
X104453Y163300D01*
X104642Y161864D01*
X105196Y160526D01*
X106077Y159377D01*
X107156Y158550D01*
Y158050D01*
X106077Y157223D01*
X105196Y156074D01*
X104642Y154736D01*
X104453Y153300D01*
X104642Y151864D01*
X105196Y150526D01*
X106077Y149377D01*
X107156Y148550D01*
Y148050D01*
X106077Y147223D01*
X105196Y146074D01*
X104642Y144736D01*
X104453Y143300D01*
X104642Y141864D01*
X105196Y140526D01*
X106077Y139377D01*
X107156Y138550D01*
Y138050D01*
X106077Y137223D01*
X105196Y136074D01*
X104642Y134736D01*
X104453Y133300D01*
X104642Y131864D01*
X105196Y130526D01*
X106077Y129377D01*
X107156Y128550D01*
Y128050D01*
X106077Y127223D01*
X105196Y126074D01*
X104642Y124736D01*
X104453Y123300D01*
X104642Y121864D01*
X105196Y120526D01*
X106077Y119377D01*
X107156Y118550D01*
Y118050D01*
X106077Y117223D01*
X105196Y116074D01*
X104642Y114736D01*
X104453Y113300D01*
X104642Y111864D01*
X105196Y110526D01*
X106077Y109377D01*
X107226Y108496D01*
X108564Y107942D01*
X110000Y107753D01*
X111436Y107942D01*
X112774Y108496D01*
X113923Y109377D01*
X114804Y110526D01*
X115358Y111864D01*
X115548Y113300D01*
X115358Y114736D01*
X114804Y116074D01*
X113923Y117223D01*
X112774Y118104D01*
Y118496D01*
X113923Y119377D01*
X114804Y120526D01*
X115109Y121261D01*
X116500D01*
X117280Y121416D01*
X117647Y121661D01*
X120200D01*
Y120700D01*
X125881D01*
X126016Y120020D01*
X126458Y119358D01*
X127558Y118258D01*
X127558Y118258D01*
X127955Y117993D01*
X128220Y117816D01*
X128900Y117681D01*
Y116700D01*
X135500D01*
Y117563D01*
X135650Y117844D01*
D01*
Y117844D01*
X140161D01*
Y107539D01*
X136750D01*
Y107850D01*
X130480D01*
X130439Y107900D01*
Y110032D01*
X130661Y110364D01*
X130738Y110750D01*
X132500D01*
Y112100D01*
X130688D01*
X130661Y112236D01*
X130250Y112852D01*
Y113481D01*
X129809Y113245D01*
X129336Y113561D01*
X128400Y113747D01*
X127464Y113561D01*
X126991Y113245D01*
X126550Y113481D01*
Y115450D01*
X124781D01*
X124545Y115891D01*
X124661Y116064D01*
X124847Y117000D01*
X124661Y117936D01*
X124130Y118730D01*
X123336Y119261D01*
X122400Y119447D01*
X121464Y119261D01*
X120670Y118730D01*
X120139Y117936D01*
X119953Y117000D01*
X120139Y116064D01*
X120361Y115732D01*
Y115732D01*
X120050Y115450D01*
X120050D01*
Y110750D01*
Y110300D01*
X123301D01*
Y108300D01*
X120050D01*
Y106950D01*
Y103150D01*
X126550D01*
Y103570D01*
X126780Y103616D01*
X127442Y104058D01*
X129788Y106404D01*
X130142Y106258D01*
X130250Y106185D01*
Y103150D01*
X136750D01*
Y103461D01*
X141159D01*
X141264Y103391D01*
X142200Y103205D01*
X143136Y103391D01*
X143930Y103921D01*
X144461Y104715D01*
X144647Y105652D01*
X144461Y106588D01*
X144239Y106920D01*
Y114363D01*
X153773D01*
Y107288D01*
X153773Y107288D01*
X153773D01*
X153928Y106508D01*
X154370Y105846D01*
X156558Y103658D01*
X157220Y103216D01*
X158000Y103061D01*
X158400D01*
Y102350D01*
D01*
Y102350D01*
X158050Y102000D01*
X102000D01*
Y204500D01*
X121850D01*
Y204150D01*
X121850D01*
X121850Y203839D01*
X118500D01*
X118500Y203839D01*
X117720Y203684D01*
X117058Y203242D01*
X117058Y203242D01*
X112616Y198800D01*
X104500D01*
Y187800D01*
X106052D01*
X106213Y187327D01*
X106077Y187223D01*
X105196Y186074D01*
X104642Y184736D01*
X104584Y184300D01*
X115416D01*
X115358Y184736D01*
X114804Y186074D01*
X113923Y187223D01*
X113787Y187327D01*
X113948Y187800D01*
X115500D01*
Y195916D01*
X119345Y199761D01*
X121850D01*
Y199450D01*
Y199000D01*
X128350D01*
Y199450D01*
Y204150D01*
D01*
Y204150D01*
X128700Y204500D01*
X132050D01*
Y204150D01*
D02*
G37*
%LPC*%
G36*
X131631Y144172D02*
X130056D01*
Y142400D01*
X131631D01*
Y144172D01*
D02*
G37*
G36*
X126144Y152290D02*
Y152290D01*
X120144D01*
Y146790D01*
X121105D01*
Y145600D01*
X121260Y144820D01*
X121399Y144613D01*
X121163Y144172D01*
X120969D01*
Y138628D01*
X126119D01*
Y138628D01*
X126119D01*
X126119Y138628D01*
X126481D01*
Y138628D01*
X128056D01*
Y141399D01*
Y144172D01*
X126481D01*
D01*
D01*
X126481Y144172D01*
X126119D01*
Y144172D01*
X125583D01*
Y145200D01*
X125583Y145200D01*
X125428Y145980D01*
X125183Y146347D01*
Y146790D01*
X126144D01*
Y146790D01*
X126144D01*
X126144Y146790D01*
X126500D01*
Y146790D01*
X132500D01*
Y147461D01*
X133332D01*
X133664Y147239D01*
X134600Y147053D01*
X135536Y147239D01*
X136330Y147770D01*
X136861Y148564D01*
X137047Y149500D01*
X136861Y150436D01*
X136330Y151230D01*
X135536Y151761D01*
X134600Y151947D01*
X133664Y151761D01*
X133332Y151539D01*
X132500D01*
Y152290D01*
X126500D01*
D01*
D01*
X126500Y152290D01*
X126144D01*
D02*
G37*
G36*
X174900Y140639D02*
X173719D01*
Y136899D01*
X174900D01*
Y140639D01*
D02*
G37*
G36*
X178081D02*
X176900D01*
Y136899D01*
X178081D01*
Y140639D01*
D02*
G37*
G36*
X131631Y156680D02*
X130056D01*
Y154908D01*
X131631D01*
Y156680D01*
D02*
G37*
G36*
X222403Y166159D02*
X219500D01*
Y163256D01*
X219544Y163262D01*
X220517Y163665D01*
X221353Y164306D01*
X221994Y165142D01*
X222397Y166115D01*
X222403Y166159D01*
D02*
G37*
G36*
X217500Y171062D02*
X217456Y171056D01*
X216483Y170653D01*
X215647Y170012D01*
X215006Y169176D01*
X214603Y168203D01*
X214597Y168159D01*
X217500D01*
Y171062D01*
D02*
G37*
G36*
X219500D02*
Y168159D01*
X222403D01*
X222397Y168203D01*
X221994Y169176D01*
X221353Y170012D01*
X220517Y170653D01*
X219544Y171056D01*
X219500Y171062D01*
D02*
G37*
G36*
X178081Y178041D02*
X173719D01*
Y168561D01*
X173917D01*
Y162382D01*
X173861Y162100D01*
X174016Y161320D01*
X174458Y160658D01*
X176895Y158221D01*
X176823Y158049D01*
X176333Y157951D01*
X172883Y161401D01*
Y168561D01*
X173081D01*
Y178041D01*
X168719D01*
Y168561D01*
X168917D01*
Y160783D01*
X168861Y160500D01*
X169016Y159720D01*
X169458Y159058D01*
X174238Y154279D01*
X174238Y154279D01*
X174899Y153836D01*
X174899Y153836D01*
X174899Y153836D01*
D01*
X174899Y153836D01*
X174899Y153836D01*
X175680Y153681D01*
X175680Y153681D01*
X188640D01*
X188875Y153240D01*
X188739Y153036D01*
X188553Y152100D01*
X188739Y151164D01*
X188512Y150739D01*
X173000D01*
X172220Y150584D01*
X171558Y150142D01*
X171398Y149902D01*
X164498Y143002D01*
X164068Y142359D01*
X163917Y141600D01*
Y140639D01*
X163719D01*
Y131159D01*
X165059D01*
X165295Y130718D01*
X164839Y130036D01*
X164653Y129100D01*
X164839Y128164D01*
X165370Y127370D01*
X166164Y126839D01*
X167100Y126653D01*
X168036Y126839D01*
X168830Y127370D01*
X169361Y128164D01*
X169458Y128654D01*
X171963Y131159D01*
X173081D01*
Y140639D01*
X168719D01*
Y133724D01*
X168303Y133447D01*
X168081Y133539D01*
Y140639D01*
X168081D01*
X168081Y140977D01*
X173765Y146661D01*
X194351D01*
X194497Y146182D01*
X193970Y145830D01*
X193439Y145036D01*
X193380Y144739D01*
X192890Y144642D01*
X192630Y145030D01*
X191836Y145561D01*
X190900Y145747D01*
X189964Y145561D01*
X189170Y145030D01*
X188639Y144236D01*
X188453Y143300D01*
X188639Y142364D01*
X188917Y141948D01*
Y140639D01*
X188719D01*
Y131159D01*
X193081D01*
Y140639D01*
X192883D01*
Y141948D01*
X193161Y142364D01*
X193220Y142660D01*
X193530Y142722D01*
X193917Y142405D01*
Y140639D01*
X193719D01*
Y131159D01*
X198081D01*
Y140639D01*
X197883D01*
Y143047D01*
X197961Y143164D01*
X198147Y144100D01*
X197961Y145036D01*
X197430Y145830D01*
X196903Y146182D01*
X197049Y146661D01*
X199455D01*
X204615Y141501D01*
X204693Y141110D01*
X204713Y141080D01*
X204477Y140639D01*
X203719D01*
Y131159D01*
X208081D01*
Y136517D01*
X209000D01*
X209759Y136668D01*
X210402Y137098D01*
X211702Y138398D01*
X212132Y139041D01*
X212283Y139800D01*
Y145018D01*
X212339Y145300D01*
X212184Y146080D01*
X211742Y146742D01*
X211372Y147111D01*
X211608Y147553D01*
X212357Y147403D01*
X215023D01*
X215647Y146590D01*
X216483Y145949D01*
X217456Y145546D01*
X218500Y145408D01*
X219544Y145546D01*
X220517Y145949D01*
X221353Y146590D01*
X221994Y147425D01*
X222397Y148398D01*
X222534Y149443D01*
X222397Y150487D01*
X221994Y151460D01*
X221353Y152295D01*
X220517Y152937D01*
X219544Y153340D01*
X220517Y153823D01*
X220517D01*
D01*
D01*
D01*
X220517Y153823D01*
X221353Y154464D01*
X221994Y155299D01*
X222397Y156272D01*
X222534Y157317D01*
X222397Y158361D01*
X221994Y159334D01*
X221353Y160169D01*
X220517Y160811D01*
X219544Y161214D01*
X218500Y161351D01*
X217456Y161214D01*
X216483Y160811D01*
X215647Y160169D01*
X215023Y159356D01*
X210328D01*
X209522Y160162D01*
X208860Y160604D01*
X208080Y160760D01*
X180124D01*
X177883Y163001D01*
Y168561D01*
X178081D01*
Y178041D01*
D02*
G37*
G36*
X131631Y160452D02*
X130056D01*
Y158680D01*
X131631D01*
Y160452D01*
D02*
G37*
G36*
X217500Y166159D02*
X214597D01*
X214603Y166115D01*
X215006Y165142D01*
X215647Y164306D01*
X216483Y163665D01*
X217456Y163262D01*
X217500Y163256D01*
Y166159D01*
D02*
G37*
G36*
X218500Y143634D02*
X217456Y143497D01*
X216483Y143094D01*
X215647Y142453D01*
X215006Y141617D01*
X214603Y140644D01*
X214465Y139600D01*
X214603Y138556D01*
X215006Y137583D01*
X215647Y136747D01*
X216483Y136106D01*
X217456Y135703D01*
X218500Y135565D01*
X219544Y135703D01*
X220517Y136106D01*
X221353Y136747D01*
X221994Y137583D01*
X222397Y138556D01*
X222534Y139600D01*
X222397Y140644D01*
X221994Y141617D01*
X221353Y142453D01*
X220517Y143094D01*
X219544Y143497D01*
X218500Y143634D01*
D02*
G37*
G36*
X237600Y120145D02*
X236836Y120070D01*
X235139Y119555D01*
X233576Y118719D01*
X232205Y117595D01*
X231081Y116224D01*
X230245Y114661D01*
X229730Y112964D01*
X229655Y112200D01*
X237600D01*
Y120145D01*
D02*
G37*
G36*
X132500Y115450D02*
X130250D01*
Y114100D01*
X132500D01*
Y115450D01*
D02*
G37*
G36*
X136750D02*
X134500D01*
Y114100D01*
X136750D01*
Y115450D01*
D02*
G37*
G36*
X170756Y107850D02*
X168756D01*
Y106100D01*
X170756D01*
Y107850D01*
D02*
G37*
G36*
X179600D02*
X177600D01*
Y106100D01*
X179600D01*
Y107850D01*
D02*
G37*
G36*
X136750Y112100D02*
X134500D01*
Y110750D01*
X136750D01*
Y112100D01*
D02*
G37*
G36*
X230169Y135454D02*
Y128513D01*
X237110D01*
X237054Y129082D01*
X236596Y130590D01*
X235853Y131980D01*
X234854Y133198D01*
X233635Y134197D01*
X232246Y134940D01*
X230738Y135398D01*
X230169Y135454D01*
D02*
G37*
G36*
X174900Y134899D02*
X173719D01*
Y131159D01*
X174900D01*
Y134899D01*
D02*
G37*
G36*
X178081D02*
X176900D01*
Y131159D01*
X178081D01*
Y134899D01*
D02*
G37*
G36*
X228169Y126513D02*
X221229D01*
X221285Y125945D01*
X221743Y124437D01*
X222485Y123047D01*
X223485Y121829D01*
X224703Y120829D01*
X226093Y120087D01*
X227601Y119629D01*
X228169Y119573D01*
Y126513D01*
D02*
G37*
G36*
X237110D02*
X230169D01*
Y119573D01*
X230738Y119629D01*
X232246Y120087D01*
X233635Y120829D01*
X234854Y121829D01*
X235853Y123047D01*
X236596Y124437D01*
X237054Y125945D01*
X237110Y126513D01*
D02*
G37*
G36*
X228169Y135454D02*
X227601Y135398D01*
X226093Y134940D01*
X224703Y134197D01*
X223485Y133198D01*
X222485Y131980D01*
X221743Y130590D01*
X221285Y129082D01*
X221229Y128513D01*
X228169D01*
Y135454D01*
D02*
G37*
G36*
X150200Y182500D02*
X148200D01*
Y180750D01*
X150200D01*
Y182500D01*
D02*
G37*
G36*
X174000Y183800D02*
X171250D01*
Y181250D01*
X174000D01*
Y183800D01*
D02*
G37*
G36*
X178750D02*
X176000D01*
Y181250D01*
X178750D01*
Y183800D01*
D02*
G37*
G36*
X131631Y176732D02*
X130056D01*
Y174960D01*
X131631D01*
Y176732D01*
D02*
G37*
G36*
X228169Y187186D02*
X227601Y187130D01*
X226093Y186672D01*
X224703Y185930D01*
X223485Y184930D01*
X222485Y183712D01*
X221743Y182322D01*
X221285Y180814D01*
X221229Y180246D01*
X228169D01*
Y187186D01*
D02*
G37*
G36*
X230169D02*
Y180246D01*
X237110D01*
X237054Y180814D01*
X236596Y182322D01*
X235853Y183712D01*
X234854Y184930D01*
X233635Y185930D01*
X232246Y186672D01*
X230738Y187130D01*
X230169Y187186D01*
D02*
G37*
G36*
X150200Y186250D02*
X148200D01*
Y184500D01*
X150200D01*
Y186250D01*
D02*
G37*
G36*
X128350Y197000D02*
X121850D01*
Y196550D01*
Y196239D01*
X121650D01*
X120870Y196084D01*
X120208Y195642D01*
X120205Y195639D01*
X119814Y195561D01*
X119020Y195030D01*
X118489Y194236D01*
X118303Y193300D01*
X118489Y192364D01*
X119020Y191570D01*
X119814Y191039D01*
X120750Y190853D01*
X121686Y191039D01*
X122480Y191570D01*
X122668Y191850D01*
X128350D01*
Y195650D01*
Y197000D01*
D02*
G37*
G36*
X141700Y193800D02*
X139950D01*
Y191800D01*
X141700D01*
Y193800D01*
D02*
G37*
G36*
X145450D02*
X143700D01*
Y191800D01*
X145450D01*
Y193800D01*
D02*
G37*
G36*
X174000Y188350D02*
X171250D01*
Y185800D01*
X174000D01*
Y188350D01*
D02*
G37*
G36*
X178750D02*
X176000D01*
Y185800D01*
X178750D01*
Y188350D01*
D02*
G37*
G36*
X237600Y194400D02*
X229655D01*
X229730Y193636D01*
X230245Y191939D01*
X231081Y190376D01*
X232205Y189005D01*
X233576Y187881D01*
X235139Y187045D01*
X236836Y186530D01*
X237600Y186455D01*
Y194400D01*
D02*
G37*
G36*
X184900Y172301D02*
X183719D01*
Y168561D01*
X184900D01*
Y172301D01*
D02*
G37*
G36*
X188081D02*
X186900D01*
Y168561D01*
X188081D01*
Y172301D01*
D02*
G37*
G36*
X131631Y172960D02*
X130056D01*
Y171188D01*
X131631D01*
Y172960D01*
D02*
G37*
G36*
X144900Y172301D02*
X143719D01*
Y168561D01*
X144900D01*
Y172301D01*
D02*
G37*
G36*
X148081D02*
X146900D01*
Y168561D01*
X148081D01*
Y172301D01*
D02*
G37*
G36*
X153081Y178041D02*
X148719D01*
Y168561D01*
X153081D01*
Y178041D01*
D02*
G37*
G36*
X228169Y178246D02*
X221229D01*
X221285Y177677D01*
X221743Y176169D01*
X222485Y174779D01*
X223485Y173561D01*
X224703Y172562D01*
X226093Y171819D01*
X227601Y171361D01*
X228169Y171305D01*
Y178246D01*
D02*
G37*
G36*
X148081Y178041D02*
X146900D01*
Y174301D01*
X148081D01*
Y178041D01*
D02*
G37*
G36*
X187750Y188350D02*
X180250D01*
Y181250D01*
X180713D01*
X180904Y180788D01*
X179458Y179342D01*
X179016Y178680D01*
X178889Y178041D01*
X178719D01*
Y168561D01*
X183081D01*
Y176996D01*
X183497Y177274D01*
X183719Y177182D01*
Y174301D01*
X184900D01*
Y178041D01*
X184578D01*
X184387Y178503D01*
X185442Y179558D01*
X185884Y180220D01*
X186039Y181000D01*
X186039Y181000D01*
X186039Y181000D01*
Y181000D01*
Y181250D01*
X187750D01*
Y188350D01*
D02*
G37*
G36*
X188081Y178041D02*
X186900D01*
Y174301D01*
X188081D01*
Y178041D01*
D02*
G37*
G36*
X237110Y178246D02*
X230169D01*
Y171305D01*
X230738Y171361D01*
X232246Y171819D01*
X233635Y172562D01*
X234854Y173561D01*
X235853Y174779D01*
X236596Y176169D01*
X237054Y177677D01*
X237110Y178246D01*
D02*
G37*
G36*
X208081Y178041D02*
X203719D01*
Y168561D01*
X208081D01*
Y171902D01*
X208468Y172219D01*
X208800Y172153D01*
X209736Y172339D01*
X210530Y172870D01*
X211061Y173664D01*
X211247Y174600D01*
X211061Y175536D01*
X210530Y176330D01*
X209736Y176861D01*
X208800Y177047D01*
X208468Y176981D01*
X208081Y177298D01*
Y178041D01*
D02*
G37*
G36*
X144900D02*
X143719D01*
Y174301D01*
X144900D01*
Y178041D01*
D02*
G37*
%LPD*%
D10*
X129456Y182100D02*
D03*
X123100D02*
D03*
X129456Y165820D02*
D03*
X123100D02*
D03*
X123144Y149540D02*
D03*
X129500D02*
D03*
X180600Y105100D02*
D03*
X186956D02*
D03*
X161400D02*
D03*
X167756D02*
D03*
X194444Y185000D02*
D03*
X200800D02*
D03*
X147200Y183500D02*
D03*
X140844D02*
D03*
D11*
X123544Y173960D02*
D03*
X129056D02*
D03*
X123544Y157680D02*
D03*
X129056D02*
D03*
X123544Y141400D02*
D03*
X129056D02*
D03*
D12*
X132200Y119700D02*
D03*
Y127700D02*
D03*
X123500Y123700D02*
D03*
D13*
X155812Y119300D02*
D03*
X194788D02*
D03*
D14*
X138400Y120844D02*
D03*
Y127200D02*
D03*
X142700Y194800D02*
D03*
Y201156D02*
D03*
D15*
X140900Y135899D02*
D03*
Y173301D02*
D03*
X145900Y135899D02*
D03*
X150900D02*
D03*
X155900D02*
D03*
X160900D02*
D03*
X165900D02*
D03*
X170900D02*
D03*
Y173301D02*
D03*
X165900D02*
D03*
X160900D02*
D03*
X155900D02*
D03*
X150900D02*
D03*
X145900D02*
D03*
X175900Y135899D02*
D03*
X180900D02*
D03*
X185900D02*
D03*
X190900D02*
D03*
X195900D02*
D03*
X200900D02*
D03*
Y173301D02*
D03*
X195900D02*
D03*
X190900D02*
D03*
X185900D02*
D03*
X180900D02*
D03*
X175900D02*
D03*
X205900Y135899D02*
D03*
Y173301D02*
D03*
D16*
X135300Y194200D02*
D03*
X125100D02*
D03*
X135300Y201800D02*
D03*
X125100Y198000D02*
D03*
Y201800D02*
D03*
X133500Y105500D02*
D03*
X123300D02*
D03*
X133500Y113100D02*
D03*
X123300Y109300D02*
D03*
Y113100D02*
D03*
D17*
X184000Y184800D02*
D03*
X175000D02*
D03*
D18*
X122400Y113500D02*
Y117000D01*
X131000Y198300D02*
X133856Y201156D01*
X131000Y186900D02*
Y198300D01*
X142056Y201800D02*
X142700Y201156D01*
X135300Y201800D02*
X142056D01*
X203500Y152100D02*
X210300Y145300D01*
X191000Y152100D02*
X203500D01*
X191100Y198900D02*
X194444Y195556D01*
X131000Y182100D02*
Y186900D01*
X172000Y119300D02*
X180900Y128200D01*
X155812Y119300D02*
X172000D01*
X120600Y186900D02*
X131000D01*
X118800Y185100D02*
X120600Y186900D01*
X131000Y182100D02*
X134700D01*
X129456D02*
X131000D01*
X118800Y177100D02*
Y185100D01*
X115000Y173300D02*
X118800Y177100D01*
X129540Y149500D02*
X134600D01*
X179280Y158720D02*
X208080D01*
X175900Y162100D02*
X179280Y158720D01*
X209483Y157317D02*
X218500D01*
X208080Y158720D02*
X209483Y157317D01*
X212357Y149443D02*
X218500D01*
X206080Y155720D02*
X212357Y149443D01*
X175680Y155720D02*
X206080D01*
X171100Y193900D02*
Y197000D01*
X167900Y190700D02*
X171100Y193900D01*
X167900Y182500D02*
Y190700D01*
X184000Y181000D02*
Y184800D01*
X180900Y177900D02*
X184000Y181000D01*
X180900Y173301D02*
Y177900D01*
X110000Y173300D02*
X115000D01*
X148788Y203500D02*
X186500D01*
X146444Y201156D02*
X148788Y203500D01*
X191100Y197000D02*
Y198900D01*
X186500Y203500D02*
X191100Y198900D01*
X156300Y182000D02*
Y191300D01*
X146444Y201156D02*
X156300Y191300D01*
X142700Y201156D02*
X146444D01*
X134700Y182100D02*
X136100Y183500D01*
X140844D01*
X187900Y105100D02*
Y119300D01*
X185900D02*
X187900D01*
X194444Y185000D02*
Y195556D01*
X118500Y201800D02*
X125100D01*
X110000Y193300D02*
X118500Y201800D01*
X155900Y162755D02*
X158945Y165800D01*
X160900D01*
X110000Y153300D02*
X117546Y160846D01*
X199100Y179600D02*
X200800Y181300D01*
Y185000D01*
X155812Y107288D02*
Y119300D01*
Y107288D02*
X158000Y105100D01*
X161400D01*
X129456Y165820D02*
X142180D01*
X121650Y194200D02*
X125100D01*
X120750Y193300D02*
X121650Y194200D01*
X133100Y105500D02*
X133500D01*
X195700Y144100D02*
X195900Y143900D01*
X161100Y182900D02*
Y198900D01*
X173000Y148700D02*
X200300D01*
X206954Y142046D01*
X128400Y107900D02*
Y111300D01*
X126000Y105500D02*
X128400Y107900D01*
X123300Y105500D02*
X126000D01*
X129000Y119700D02*
X132200D01*
X127900Y120800D02*
X129000Y119700D01*
X127900Y120800D02*
Y131700D01*
X137800Y141600D01*
X133500Y105500D02*
X142048D01*
X142200Y105652D01*
Y125300D01*
X140300Y127200D02*
X142200Y125300D01*
X138400Y127200D02*
X140300D01*
X170900Y160500D02*
X175680Y155720D01*
X122800Y113100D02*
X123300D01*
X135844Y120844D02*
X138400D01*
X134700Y119700D02*
X135844Y120844D01*
X132200Y119700D02*
X134700D01*
X186956Y105100D02*
X187900D01*
Y119300D02*
X194788D01*
X140844Y178356D02*
Y183500D01*
Y178356D02*
X140900Y178300D01*
Y173301D02*
Y178300D01*
X116900Y123700D02*
X123500D01*
X116500Y123300D02*
X116900Y123700D01*
X110000Y123300D02*
X116500D01*
X201100Y192100D02*
Y198900D01*
X200800Y191800D02*
X201100Y192100D01*
X200800Y185000D02*
Y191800D01*
X123144Y145600D02*
Y149540D01*
Y145600D02*
X123544Y145200D01*
Y141400D02*
Y145200D01*
X123100Y161944D02*
Y165820D01*
Y161944D02*
X123544Y161500D01*
Y157680D02*
Y161500D01*
X123100Y178244D02*
Y182100D01*
Y178244D02*
X123544Y177800D01*
Y173960D02*
Y177800D01*
D19*
X175900Y162100D02*
Y173301D01*
X165900D02*
Y177700D01*
X164400Y179200D02*
X165900Y177700D01*
X159100Y179200D02*
X164400D01*
X205900Y174600D02*
X208800D01*
X185900Y119300D02*
Y135899D01*
X205900Y138500D02*
X209000D01*
X155900Y135899D02*
Y162755D01*
X195900Y173301D02*
Y177500D01*
X193900Y179500D02*
X195900Y177500D01*
X190900Y169000D02*
X192800Y167100D01*
X190900Y169000D02*
Y173301D01*
X200900Y166000D02*
Y173301D01*
X140900Y131100D02*
Y135899D01*
Y131100D02*
X142600Y130500D01*
X210300Y139800D02*
Y145300D01*
X209000Y138500D02*
X210300Y139800D01*
X205900Y135899D02*
Y138500D01*
X195900Y135899D02*
Y143900D01*
X160900Y135899D02*
Y161600D01*
X156300Y182000D02*
X159100Y179200D01*
X205900Y173301D02*
Y174600D01*
X165900Y135899D02*
Y141600D01*
X173000Y148700D01*
X137800Y141600D02*
X144300D01*
X145900Y140000D01*
Y135899D02*
Y140000D01*
X150900Y127090D02*
Y135899D01*
X170900Y160500D02*
Y173301D01*
X180900Y128200D02*
Y135899D01*
X170900Y132900D02*
Y135899D01*
X167100Y129100D02*
X170900Y132900D01*
X200900Y126300D02*
Y135899D01*
X190900D02*
Y143300D01*
D20*
X100000Y100000D02*
X249600D01*
Y206600D01*
X100000D02*
X249600D01*
X100000Y100000D02*
Y206600D01*
D21*
X218500Y149443D02*
D03*
Y157317D02*
D03*
Y167159D02*
D03*
Y139600D02*
D03*
D22*
X229169Y127513D02*
D03*
Y179246D02*
D03*
D23*
X201100Y197000D02*
D03*
D24*
X191100D02*
D03*
X181100D02*
D03*
X171100D02*
D03*
X161100D02*
D03*
X110000Y133300D02*
D03*
Y143300D02*
D03*
Y183300D02*
D03*
Y173300D02*
D03*
Y163300D02*
D03*
Y153300D02*
D03*
Y123300D02*
D03*
Y113300D02*
D03*
D25*
Y193300D02*
D03*
D26*
X238600Y111200D02*
D03*
Y195400D02*
D03*
D27*
X203800Y179700D02*
D03*
X211200Y131700D02*
D03*
X136200Y173500D02*
D03*
X135400Y188100D02*
D03*
X152300Y181600D02*
D03*
X119300Y135400D02*
D03*
X147700Y153000D02*
D03*
X173500Y180000D02*
D03*
X166000Y164200D02*
D03*
X181700Y164800D02*
D03*
X239300Y154900D02*
D03*
X211100Y200900D02*
D03*
X109800Y202000D02*
D03*
X111800Y105000D02*
D03*
X149600Y104200D02*
D03*
X174300Y104300D02*
D03*
X156300Y127200D02*
D03*
X171500Y125900D02*
D03*
X177800Y116100D02*
D03*
X122400Y117000D02*
D03*
X142200Y105652D02*
D03*
X201000Y165900D02*
D03*
X167900Y182500D02*
D03*
X160900Y165800D02*
D03*
X193900Y179500D02*
D03*
X117546Y160846D02*
D03*
X192800Y167100D02*
D03*
X142600Y130500D02*
D03*
X199100Y179600D02*
D03*
X142180Y165820D02*
D03*
X191000Y152100D02*
D03*
X120750Y193300D02*
D03*
X195700Y144100D02*
D03*
X134600Y149500D02*
D03*
X160900Y161600D02*
D03*
X161100Y182900D02*
D03*
X208800Y174600D02*
D03*
X206954Y142046D02*
D03*
X128400Y111300D02*
D03*
X150900Y127090D02*
D03*
X167100Y129100D02*
D03*
X200900Y126300D02*
D03*
X190900Y143300D02*
D03*
M02*
