%FSLAX25Y25*%
%MOIN*%
G70*
G01*
G75*
G04 Layer_Physical_Order=2*
G04 Layer_Color=16711680*
%ADD10R,0.04000X0.03500*%
%ADD11R,0.03150X0.03543*%
%ADD12R,0.04600X0.04000*%
%ADD13R,0.21654X0.07874*%
%ADD14R,0.03500X0.04000*%
%ADD15R,0.02362X0.07480*%
%ADD16R,0.04500X0.02700*%
%ADD17R,0.05500X0.05100*%
%ADD18C,0.02000*%
%ADD19C,0.01890*%
%ADD20C,0.01000*%
%ADD21C,0.06000*%
%ADD22C,0.14000*%
%ADD23R,0.09000X0.09000*%
%ADD24C,0.09000*%
%ADD25R,0.09000X0.09000*%
%ADD26C,0.16000*%
%ADD27C,0.02800*%
G36*
X235964Y204005D02*
X235139Y203755D01*
X233576Y202919D01*
X232205Y201795D01*
X231081Y200424D01*
X230245Y198861D01*
X229730Y197164D01*
X229655Y196400D01*
X238601D01*
Y195401D01*
X239600D01*
Y186455D01*
X240364Y186530D01*
X242061Y187045D01*
X243624Y187881D01*
X244995Y189005D01*
X246119Y190376D01*
X246955Y191939D01*
X247005Y192105D01*
X247500Y192032D01*
Y114568D01*
X247005Y114495D01*
X246955Y114661D01*
X246119Y116224D01*
X244995Y117595D01*
X243624Y118719D01*
X242061Y119555D01*
X240364Y120070D01*
X239600Y120145D01*
Y111199D01*
X238601D01*
Y110200D01*
X229655D01*
X229730Y109436D01*
X230245Y107739D01*
X231081Y106176D01*
X232205Y104805D01*
X233576Y103681D01*
X235139Y102845D01*
X236294Y102495D01*
X236221Y102000D01*
X102000D01*
Y204500D01*
X235891D01*
X235964Y204005D01*
D02*
G37*
%LPC*%
G36*
X237600Y120145D02*
X236836Y120070D01*
X235139Y119555D01*
X233576Y118719D01*
X232205Y117595D01*
X231081Y116224D01*
X230245Y114661D01*
X229730Y112964D01*
X229655Y112200D01*
X237600D01*
Y120145D01*
D02*
G37*
G36*
X228169Y126513D02*
X221229D01*
X221285Y125945D01*
X221743Y124437D01*
X222485Y123047D01*
X223485Y121829D01*
X224703Y120829D01*
X226093Y120087D01*
X227601Y119629D01*
X228169Y119573D01*
Y126513D01*
D02*
G37*
G36*
X230169Y135454D02*
Y128513D01*
X237110D01*
X237054Y129082D01*
X236596Y130590D01*
X235853Y131980D01*
X234854Y133198D01*
X233635Y134197D01*
X232246Y134940D01*
X230738Y135398D01*
X230169Y135454D01*
D02*
G37*
G36*
X237110Y126513D02*
X230169D01*
Y119573D01*
X230738Y119629D01*
X232246Y120087D01*
X233635Y120829D01*
X234854Y121829D01*
X235853Y123047D01*
X236596Y124437D01*
X237054Y125945D01*
X237110Y126513D01*
D02*
G37*
G36*
X167100Y131547D02*
X166164Y131361D01*
X165370Y130830D01*
X164839Y130036D01*
X164761Y129645D01*
X154255Y119139D01*
X123518D01*
X123336Y119261D01*
X122400Y119447D01*
X121464Y119261D01*
X120670Y118730D01*
X120139Y117936D01*
X119953Y117000D01*
X120139Y116064D01*
X120670Y115270D01*
X121464Y114739D01*
X122400Y114553D01*
X123336Y114739D01*
X123818Y115061D01*
X155100D01*
X155880Y115216D01*
X156542Y115658D01*
X156542Y115658D01*
X156542Y115658D01*
X167645Y126761D01*
X168036Y126839D01*
X168830Y127370D01*
X169361Y128164D01*
X169547Y129100D01*
X169361Y130036D01*
X168830Y130830D01*
X168036Y131361D01*
X167100Y131547D01*
D02*
G37*
G36*
X237600Y194400D02*
X229655D01*
X229730Y193636D01*
X230245Y191939D01*
X231081Y190376D01*
X232205Y189005D01*
X233576Y187881D01*
X235139Y187045D01*
X236836Y186530D01*
X237600Y186455D01*
Y194400D01*
D02*
G37*
G36*
X191100Y202548D02*
X189664Y202358D01*
X188326Y201804D01*
X187177Y200923D01*
X186350Y199844D01*
X185850D01*
X185023Y200923D01*
X183874Y201804D01*
X182536Y202358D01*
X182100Y202416D01*
Y196999D01*
X180100D01*
Y202416D01*
X179664Y202358D01*
X178326Y201804D01*
X177177Y200923D01*
X176350Y199844D01*
X175850D01*
X175023Y200923D01*
X173874Y201804D01*
X172536Y202358D01*
X171100Y202548D01*
X169664Y202358D01*
X168326Y201804D01*
X167177Y200923D01*
X166350Y199844D01*
X165850D01*
X165023Y200923D01*
X163874Y201804D01*
X162536Y202358D01*
X161100Y202548D01*
X159664Y202358D01*
X158326Y201804D01*
X157177Y200923D01*
X156296Y199774D01*
X155742Y198436D01*
X155552Y197000D01*
X155742Y195564D01*
X155806Y195408D01*
X155420Y195091D01*
X155280Y195184D01*
X154500Y195339D01*
X122018D01*
X121686Y195561D01*
X120750Y195747D01*
X119814Y195561D01*
X119482Y195339D01*
X115500D01*
Y198800D01*
X104500D01*
Y187800D01*
X106052D01*
X106213Y187327D01*
X106077Y187223D01*
X105196Y186074D01*
X104642Y184736D01*
X104584Y184300D01*
X115416D01*
X115358Y184736D01*
X114804Y186074D01*
X113923Y187223D01*
X113787Y187327D01*
X113948Y187800D01*
X115500D01*
Y191261D01*
X119482D01*
X119814Y191039D01*
X120750Y190853D01*
X121686Y191039D01*
X122018Y191261D01*
X153655D01*
X155815Y189101D01*
X155624Y188639D01*
X143300D01*
X143300Y188639D01*
X142520Y188484D01*
X141858Y188042D01*
X117001Y163184D01*
X116610Y163107D01*
X115921Y162646D01*
X115496Y162911D01*
X115548Y163300D01*
X115358Y164736D01*
X114804Y166074D01*
X113923Y167223D01*
X112774Y168104D01*
Y168496D01*
X113923Y169377D01*
X114804Y170526D01*
X115358Y171864D01*
X115548Y173300D01*
X115358Y174736D01*
X114804Y176074D01*
X113923Y177223D01*
X112774Y178104D01*
Y178496D01*
X113923Y179377D01*
X114804Y180526D01*
X115358Y181864D01*
X115416Y182300D01*
X104584D01*
X104642Y181864D01*
X105196Y180526D01*
X106077Y179377D01*
X107156Y178550D01*
Y178050D01*
X106077Y177223D01*
X105196Y176074D01*
X104642Y174736D01*
X104453Y173300D01*
X104642Y171864D01*
X105196Y170526D01*
X106077Y169377D01*
X107156Y168550D01*
Y168050D01*
X106077Y167223D01*
X105196Y166074D01*
X104642Y164736D01*
X104453Y163300D01*
X104642Y161864D01*
X105196Y160526D01*
X106077Y159377D01*
X107156Y158550D01*
Y158050D01*
X106077Y157223D01*
X105196Y156074D01*
X104642Y154736D01*
X104453Y153300D01*
X104642Y151864D01*
X105196Y150526D01*
X106077Y149377D01*
X107156Y148550D01*
Y148050D01*
X106077Y147223D01*
X105196Y146074D01*
X104642Y144736D01*
X104453Y143300D01*
X104642Y141864D01*
X105196Y140526D01*
X106077Y139377D01*
X107156Y138550D01*
Y138050D01*
X106077Y137223D01*
X105196Y136074D01*
X104642Y134736D01*
X104453Y133300D01*
X104642Y131864D01*
X105196Y130526D01*
X106077Y129377D01*
X107156Y128550D01*
Y128050D01*
X106077Y127223D01*
X105196Y126074D01*
X104642Y124736D01*
X104453Y123300D01*
X104642Y121864D01*
X105196Y120526D01*
X106077Y119377D01*
X107156Y118550D01*
Y118050D01*
X106077Y117223D01*
X105196Y116074D01*
X104642Y114736D01*
X104453Y113300D01*
X104642Y111864D01*
X105196Y110526D01*
X106077Y109377D01*
X107226Y108496D01*
X108564Y107942D01*
X110000Y107753D01*
X111436Y107942D01*
X112774Y108496D01*
X113923Y109377D01*
X114804Y110526D01*
X115358Y111864D01*
X115548Y113300D01*
X115358Y114736D01*
X115054Y115470D01*
X121645Y122061D01*
X147910D01*
X148690Y122216D01*
X149352Y122658D01*
X151445Y124752D01*
X151836Y124829D01*
X152630Y125360D01*
X153161Y126154D01*
X153347Y127090D01*
X153161Y128027D01*
X152630Y128821D01*
X151836Y129351D01*
X150900Y129537D01*
X150838Y129654D01*
X155245Y134061D01*
X199200D01*
X199709Y134162D01*
X199945Y133721D01*
X179563Y113339D01*
X129668D01*
X129336Y113561D01*
X128400Y113747D01*
X127464Y113561D01*
X126670Y113030D01*
X126139Y112236D01*
X125953Y111300D01*
X126139Y110364D01*
X126670Y109570D01*
X127464Y109039D01*
X128400Y108853D01*
X129336Y109039D01*
X129668Y109261D01*
X142272D01*
X142463Y108799D01*
X141655Y107990D01*
X141264Y107913D01*
X140470Y107382D01*
X139939Y106588D01*
X139753Y105652D01*
X139939Y104715D01*
X140470Y103921D01*
X141264Y103391D01*
X142200Y103205D01*
X143136Y103391D01*
X143930Y103921D01*
X144461Y104715D01*
X144539Y105106D01*
X145593Y106161D01*
X182800D01*
X183580Y106316D01*
X184242Y106758D01*
X184242Y106758D01*
X184242Y106758D01*
X201445Y123961D01*
X201836Y124039D01*
X202168Y124261D01*
X215200D01*
X215980Y124416D01*
X216642Y124858D01*
X220806Y129022D01*
X221258Y128809D01*
X221229Y128513D01*
X228169D01*
Y135454D01*
X227601Y135398D01*
X226093Y134940D01*
X225968Y134873D01*
X225539Y135130D01*
Y170700D01*
X225384Y171480D01*
X225210Y171741D01*
X225546Y172111D01*
X226093Y171819D01*
X227601Y171361D01*
X228169Y171305D01*
Y178246D01*
X221229D01*
X221285Y177677D01*
X221743Y176169D01*
X221890Y175893D01*
X221489Y175595D01*
X205642Y191442D01*
X205660Y191500D01*
X206600D01*
Y202500D01*
X195600D01*
Y200948D01*
X195126Y200787D01*
X195023Y200923D01*
X193874Y201804D01*
X192536Y202358D01*
X191100Y202548D01*
D02*
G37*
G36*
X230169Y187186D02*
Y180246D01*
X237110D01*
X237054Y180814D01*
X236596Y182322D01*
X235853Y183712D01*
X234854Y184930D01*
X233635Y185930D01*
X232246Y186672D01*
X230738Y187130D01*
X230169Y187186D01*
D02*
G37*
G36*
X237110Y178246D02*
X230169D01*
Y171305D01*
X230738Y171361D01*
X232246Y171819D01*
X233635Y172562D01*
X234854Y173561D01*
X235853Y174779D01*
X236596Y176169D01*
X237054Y177677D01*
X237110Y178246D01*
D02*
G37*
G36*
X228169Y187186D02*
X227601Y187130D01*
X226093Y186672D01*
X224703Y185930D01*
X223485Y184930D01*
X222485Y183712D01*
X221743Y182322D01*
X221285Y180814D01*
X221229Y180246D01*
X228169D01*
Y187186D01*
D02*
G37*
%LPD*%
G36*
X150015Y140799D02*
X142055Y132839D01*
X141664Y132761D01*
X140870Y132230D01*
X140339Y131436D01*
X140153Y130500D01*
X140339Y129564D01*
X140112Y129139D01*
X121845D01*
X116242Y134742D01*
X115580Y135184D01*
X115136Y135272D01*
X114804Y136074D01*
X113923Y137223D01*
X112774Y138104D01*
Y138496D01*
X113923Y139377D01*
X114804Y140526D01*
X115109Y141261D01*
X149824D01*
X150015Y140799D01*
D02*
G37*
G36*
X206761Y179455D02*
Y175868D01*
X206539Y175536D01*
X206353Y174600D01*
X206539Y173664D01*
X206761Y173332D01*
Y149300D01*
X206761Y149300D01*
X206761D01*
X206916Y148520D01*
X207358Y147858D01*
X214599Y140617D01*
X214465Y139600D01*
X214603Y138556D01*
X215006Y137583D01*
X215647Y136747D01*
X216483Y136106D01*
X217456Y135703D01*
X218500Y135565D01*
X219544Y135703D01*
X220517Y136106D01*
X221012Y136486D01*
X221461Y136265D01*
Y135445D01*
X214355Y128339D01*
X202168D01*
X201836Y128561D01*
X200900Y128747D01*
X200844Y128852D01*
X208396Y136404D01*
X208838Y137066D01*
X208993Y137846D01*
X208993Y137846D01*
X208993Y137846D01*
Y137846D01*
Y140778D01*
X209214Y141110D01*
X209401Y142046D01*
X209214Y142983D01*
X208684Y143777D01*
X207890Y144307D01*
X206954Y144493D01*
X206017Y144307D01*
X205223Y143777D01*
X204693Y142983D01*
X204637Y142701D01*
X204139Y142750D01*
Y161700D01*
X203984Y162480D01*
X203542Y163142D01*
X203239Y163445D01*
Y164931D01*
X203261Y164964D01*
X203447Y165900D01*
X203261Y166836D01*
X202730Y167630D01*
X201936Y168161D01*
X201000Y168347D01*
X200064Y168161D01*
X199580Y167838D01*
X199139Y168073D01*
Y169655D01*
X200542Y171058D01*
X200984Y171720D01*
X201139Y172500D01*
X201139Y172500D01*
X201139Y172500D01*
Y172500D01*
Y178332D01*
X201361Y178664D01*
X201547Y179600D01*
X201361Y180536D01*
X200830Y181330D01*
X200036Y181861D01*
X199100Y182047D01*
X198164Y181861D01*
X197370Y181330D01*
X196839Y180536D01*
X196740Y180038D01*
X196240D01*
X196161Y180436D01*
X195630Y181230D01*
X194836Y181761D01*
X194445Y181839D01*
X191869Y184415D01*
X192000Y184661D01*
X201555D01*
X206761Y179455D01*
D02*
G37*
G36*
X159029Y184120D02*
X158839Y183836D01*
X158761Y183445D01*
X152000Y176684D01*
X151558Y176023D01*
X151403Y175242D01*
Y168000D01*
X151403Y168000D01*
X151403D01*
X151513Y167448D01*
X151072Y167212D01*
X147542Y170742D01*
X146880Y171184D01*
X146100Y171339D01*
X135700D01*
X134920Y171184D01*
X134258Y170742D01*
X122355Y158839D01*
X119622D01*
X119386Y159280D01*
X119807Y159910D01*
X119885Y160301D01*
X144145Y184561D01*
X158793D01*
X159029Y184120D01*
D02*
G37*
G36*
X191561Y178955D02*
X191639Y178564D01*
X192170Y177770D01*
X192964Y177239D01*
X193900Y177053D01*
X194836Y177239D01*
X195630Y177770D01*
X196161Y178564D01*
X196260Y179062D01*
X196760D01*
X196839Y178664D01*
X197061Y178332D01*
Y173345D01*
X195658Y171942D01*
X195216Y171280D01*
X195061Y170500D01*
Y168897D01*
X194582Y168752D01*
X194530Y168830D01*
X193736Y169361D01*
X192800Y169547D01*
X191864Y169361D01*
X191070Y168830D01*
X190539Y168036D01*
X190461Y167645D01*
X183055Y160239D01*
X163388D01*
X163161Y160664D01*
X163347Y161600D01*
X163161Y162536D01*
X162630Y163330D01*
X162451Y163450D01*
Y163950D01*
X162630Y164070D01*
X163161Y164864D01*
X163347Y165800D01*
X163161Y166736D01*
X162939Y167068D01*
Y171955D01*
X169342Y178358D01*
X169342Y178358D01*
X169607Y178755D01*
X169784Y179020D01*
X169939Y179800D01*
X169939Y179800D01*
X169939Y179800D01*
Y179800D01*
Y181232D01*
X170161Y181564D01*
X170347Y182500D01*
X170161Y183436D01*
X169630Y184230D01*
X169731Y184561D01*
X185955D01*
X191561Y178955D01*
D02*
G37*
G36*
X219860Y171456D02*
X219582Y171040D01*
X219544Y171056D01*
X219500Y171062D01*
Y167158D01*
Y163256D01*
X219544Y163262D01*
X220517Y163665D01*
X221012Y164045D01*
X221461Y163824D01*
Y160652D01*
X221012Y160431D01*
X220517Y160811D01*
X219544Y161214D01*
X218500Y161351D01*
X217456Y161214D01*
X216483Y160811D01*
X215647Y160169D01*
X215006Y159334D01*
X214603Y158361D01*
X214465Y157317D01*
X214603Y156272D01*
X215006Y155299D01*
X215647Y154464D01*
X216483Y153823D01*
X216949Y153630D01*
Y153130D01*
X216483Y152937D01*
X215647Y152295D01*
X215006Y151460D01*
X214603Y150487D01*
X214465Y149443D01*
X214603Y148398D01*
X215006Y147425D01*
X215647Y146590D01*
X216483Y145949D01*
X217456Y145546D01*
X218500Y145408D01*
X219544Y145546D01*
X220517Y145949D01*
X221012Y146328D01*
X221461Y146107D01*
Y142935D01*
X221012Y142714D01*
X220517Y143094D01*
X219544Y143497D01*
X218500Y143634D01*
X217483Y143501D01*
X210839Y150145D01*
Y173332D01*
X211061Y173664D01*
X211247Y174600D01*
X211061Y175536D01*
X210839Y175868D01*
Y179824D01*
X211301Y180015D01*
X219860Y171456D01*
D02*
G37*
G36*
X155758Y156758D02*
X156420Y156316D01*
X157200Y156161D01*
X183900D01*
X184680Y156316D01*
X185342Y156758D01*
X185342Y156758D01*
X185342Y156758D01*
X193345Y164761D01*
X193736Y164839D01*
X194530Y165370D01*
X194582Y165447D01*
X195061Y165302D01*
Y153250D01*
X195061Y153250D01*
X195061D01*
X195216Y152470D01*
X195658Y151808D01*
X197061Y150405D01*
Y146588D01*
X196636Y146361D01*
X196245Y146439D01*
X193265Y149419D01*
X192603Y149861D01*
X192529Y150235D01*
X192730Y150370D01*
X193261Y151164D01*
X193447Y152100D01*
X193261Y153036D01*
X192730Y153830D01*
X191936Y154361D01*
X191000Y154547D01*
X190064Y154361D01*
X189732Y154139D01*
X156745D01*
X144519Y166365D01*
X144441Y166756D01*
X144398Y166820D01*
X144634Y167261D01*
X145255D01*
X155758Y156758D01*
D02*
G37*
G36*
X139962Y166820D02*
X139919Y166756D01*
X139733Y165820D01*
X139919Y164884D01*
X140450Y164090D01*
X141244Y163559D01*
X141635Y163481D01*
X154458Y150658D01*
X154458D01*
X154458Y150658D01*
X154458Y150658D01*
Y150658D01*
X154703Y150495D01*
X154558Y150016D01*
X141445D01*
X140519Y150942D01*
X139857Y151384D01*
X139077Y151539D01*
X135868D01*
X135536Y151761D01*
X134600Y151947D01*
X133664Y151761D01*
X132870Y151230D01*
X132339Y150436D01*
X132153Y149500D01*
X132339Y148564D01*
X132870Y147770D01*
X133664Y147239D01*
X134600Y147053D01*
X135536Y147239D01*
X135868Y147461D01*
X138232D01*
X139158Y146535D01*
X139820Y146093D01*
X140600Y145938D01*
X189667D01*
X189726Y145741D01*
X189429Y145339D01*
X115109D01*
X114804Y146074D01*
X113923Y147223D01*
X112774Y148104D01*
Y148496D01*
X113923Y149377D01*
X114804Y150526D01*
X115358Y151864D01*
X115548Y153300D01*
X115398Y154435D01*
X115668Y154838D01*
X115745Y154911D01*
X116500Y154761D01*
X123200D01*
X123980Y154916D01*
X124642Y155358D01*
X124642Y155358D01*
X124642Y155358D01*
X136545Y167261D01*
X139726D01*
X139962Y166820D01*
D02*
G37*
G36*
X166096Y184120D02*
X165639Y183436D01*
X165453Y182500D01*
X165639Y181564D01*
X165861Y181232D01*
Y180645D01*
X159458Y174242D01*
X159016Y173580D01*
X158861Y172800D01*
Y167068D01*
X158639Y166736D01*
X158569Y166381D01*
X158090Y166236D01*
X155481Y168845D01*
Y174398D01*
X161645Y180561D01*
X162036Y180639D01*
X162830Y181170D01*
X163361Y181964D01*
X163547Y182900D01*
X163361Y183836D01*
X163171Y184120D01*
X163407Y184561D01*
X165860D01*
X166096Y184120D01*
D02*
G37*
%LPC*%
G36*
X217500Y171062D02*
X217456Y171056D01*
X216483Y170653D01*
X215647Y170012D01*
X215006Y169176D01*
X214603Y168203D01*
X214597Y168159D01*
X217500D01*
Y171062D01*
D02*
G37*
G36*
Y166159D02*
X214597D01*
X214603Y166115D01*
X215006Y165142D01*
X215647Y164306D01*
X216483Y163665D01*
X217456Y163262D01*
X217500Y163256D01*
Y166159D01*
D02*
G37*
%LPD*%
D18*
X208800Y174600D02*
Y180300D01*
X202400Y186700D02*
X208800Y180300D01*
X192000Y186700D02*
X202400D01*
X155100Y117100D02*
X167100Y129100D01*
X122800Y117100D02*
X155100D01*
X180408Y111300D02*
X206954Y137846D01*
X128400Y111300D02*
X180408D01*
X144748Y108200D02*
X182800D01*
X142200Y105652D02*
X144748Y108200D01*
X182800D02*
X200900Y126300D01*
X199200Y136100D02*
X202100Y139000D01*
X154400Y136100D02*
X199200D01*
X145400Y127100D02*
X154400Y136100D01*
X121000Y127100D02*
X145400D01*
X114800Y133300D02*
X121000Y127100D01*
X110000Y133300D02*
X114800D01*
X134600Y149500D02*
X139077D01*
X140600Y147977D01*
X197100Y170500D02*
X199100Y172500D01*
X197100Y153250D02*
Y170500D01*
Y153250D02*
X199100Y151250D01*
Y172500D02*
Y179600D01*
X201000Y165900D02*
X201100D01*
X201200Y166000D01*
Y162600D02*
Y166000D01*
Y162600D02*
X202100Y161700D01*
Y139000D02*
Y161700D01*
X199100Y141800D02*
Y151250D01*
X160900Y172800D02*
X167900Y179800D01*
Y182500D01*
X186800Y186600D02*
X193900Y179500D01*
X143300Y186600D02*
X186800D01*
X188700Y190000D02*
X192000Y186700D01*
X157800Y190000D02*
X188700D01*
X204200D02*
X223500Y170700D01*
X191100Y194000D02*
X195100Y190000D01*
X191100Y197000D02*
Y198900D01*
Y194000D02*
Y197000D01*
X195100Y190000D02*
X204200D01*
X223500Y134600D02*
Y170700D01*
X208800Y149300D02*
Y174600D01*
X120750Y193300D02*
X154500D01*
X157800Y190000D01*
X208800Y149300D02*
X218500Y139600D01*
X160900Y165800D02*
Y172800D01*
X117546Y160846D02*
X143300Y186600D01*
X110000Y163300D02*
X116500Y156800D01*
X123200D01*
X135700Y169300D01*
X146100D01*
X157200Y158200D01*
X183900D01*
X192800Y167100D01*
X142600Y130500D02*
X151500Y139400D01*
X196700D01*
X199100Y141800D01*
X142180Y165820D02*
X155900Y152100D01*
X191000D01*
X110000Y193300D02*
X120750D01*
X191823Y147977D02*
X195700Y144100D01*
X140600Y147977D02*
X191823D01*
X159842Y161600D02*
X160900D01*
X153442Y168000D02*
X159842Y161600D01*
X153442Y168000D02*
Y175242D01*
X161100Y182900D01*
X206954Y137846D02*
Y142046D01*
X110000Y113300D02*
X120800Y124100D01*
X147910D01*
X150900Y127090D01*
X215200Y126300D02*
X223500Y134600D01*
X200900Y126300D02*
X215200D01*
X110000Y143300D02*
X190900D01*
D20*
X100000Y100000D02*
X249600D01*
Y206600D01*
X100000D02*
X249600D01*
X100000Y100000D02*
Y206600D01*
D21*
X218500Y149443D02*
D03*
Y157317D02*
D03*
Y167159D02*
D03*
Y139600D02*
D03*
D22*
X229169Y127513D02*
D03*
Y179246D02*
D03*
D23*
X201100Y197000D02*
D03*
D24*
X191100D02*
D03*
X181100D02*
D03*
X171100D02*
D03*
X161100D02*
D03*
X110000Y133300D02*
D03*
Y143300D02*
D03*
Y183300D02*
D03*
Y173300D02*
D03*
Y163300D02*
D03*
Y153300D02*
D03*
Y123300D02*
D03*
Y113300D02*
D03*
D25*
Y193300D02*
D03*
D26*
X238600Y111200D02*
D03*
Y195400D02*
D03*
D27*
X203800Y179700D02*
D03*
X211200Y131700D02*
D03*
X136200Y173500D02*
D03*
X135400Y188100D02*
D03*
X152300Y181600D02*
D03*
X119300Y135400D02*
D03*
X147700Y153000D02*
D03*
X173500Y180000D02*
D03*
X166000Y164200D02*
D03*
X181700Y164800D02*
D03*
X239300Y154900D02*
D03*
X211100Y200900D02*
D03*
X109800Y202000D02*
D03*
X111800Y105000D02*
D03*
X149600Y104200D02*
D03*
X174300Y104300D02*
D03*
X156300Y127200D02*
D03*
X171500Y125900D02*
D03*
X177800Y116100D02*
D03*
X122400Y117000D02*
D03*
X142200Y105652D02*
D03*
X201000Y165900D02*
D03*
X167900Y182500D02*
D03*
X160900Y165800D02*
D03*
X193900Y179500D02*
D03*
X117546Y160846D02*
D03*
X192800Y167100D02*
D03*
X142600Y130500D02*
D03*
X199100Y179600D02*
D03*
X142180Y165820D02*
D03*
X191000Y152100D02*
D03*
X120750Y193300D02*
D03*
X195700Y144100D02*
D03*
X134600Y149500D02*
D03*
X160900Y161600D02*
D03*
X161100Y182900D02*
D03*
X208800Y174600D02*
D03*
X206954Y142046D02*
D03*
X128400Y111300D02*
D03*
X150900Y127090D02*
D03*
X167100Y129100D02*
D03*
X200900Y126300D02*
D03*
X190900Y143300D02*
D03*
M02*
