%FSLAX25Y25*%
%MOIN*%
G70*
G01*
G75*
G04 Layer_Color=8388736*
%ADD10R,0.04000X0.03500*%
%ADD11R,0.03150X0.03543*%
%ADD12R,0.04600X0.04000*%
%ADD13R,0.21654X0.07874*%
%ADD14R,0.03500X0.04000*%
%ADD15R,0.02362X0.07480*%
%ADD16R,0.04500X0.02700*%
%ADD17R,0.05500X0.05100*%
%ADD18C,0.02000*%
%ADD19C,0.01890*%
%ADD20C,0.01000*%
%ADD21C,0.06000*%
%ADD22C,0.14000*%
%ADD23R,0.09000X0.09000*%
%ADD24C,0.09000*%
%ADD25R,0.09000X0.09000*%
%ADD26C,0.16000*%
%ADD27C,0.02800*%
%ADD28C,0.00984*%
%ADD29C,0.00787*%
%ADD30C,0.00800*%
%ADD31R,0.04800X0.04300*%
%ADD32R,0.03950X0.04343*%
%ADD33R,0.05400X0.04800*%
%ADD34R,0.22453X0.08674*%
%ADD35R,0.04300X0.04800*%
%ADD36R,0.03162X0.08280*%
%ADD37R,0.05300X0.03500*%
%ADD38R,0.06300X0.05900*%
%ADD39C,0.06800*%
%ADD40C,0.14800*%
%ADD41R,0.09800X0.09800*%
%ADD42C,0.09800*%
%ADD43R,0.09800X0.09800*%
%ADD44C,0.16800*%
D20*
X100000Y100000D02*
X249600D01*
Y206600D01*
X100000D02*
X249600D01*
X100000Y100000D02*
Y206600D01*
D31*
X129456Y182100D02*
D03*
X123100D02*
D03*
X129456Y165820D02*
D03*
X123100D02*
D03*
X123144Y149540D02*
D03*
X129500D02*
D03*
X180600Y105100D02*
D03*
X186956D02*
D03*
X161400D02*
D03*
X167756D02*
D03*
X194444Y185000D02*
D03*
X200800D02*
D03*
X147200Y183500D02*
D03*
X140844D02*
D03*
D32*
X123544Y173960D02*
D03*
X129056D02*
D03*
X123544Y157680D02*
D03*
X129056D02*
D03*
X123544Y141400D02*
D03*
X129056D02*
D03*
D33*
X132200Y119700D02*
D03*
Y127700D02*
D03*
X123500Y123700D02*
D03*
D34*
X155812Y119300D02*
D03*
X194788D02*
D03*
D35*
X138400Y120844D02*
D03*
Y127200D02*
D03*
X142700Y194800D02*
D03*
Y201156D02*
D03*
D36*
X140900Y135899D02*
D03*
Y173301D02*
D03*
X145900Y135899D02*
D03*
X150900D02*
D03*
X155900D02*
D03*
X160900D02*
D03*
X165900D02*
D03*
X170900D02*
D03*
Y173301D02*
D03*
X165900D02*
D03*
X160900D02*
D03*
X155900D02*
D03*
X150900D02*
D03*
X145900D02*
D03*
X175900Y135899D02*
D03*
X180900D02*
D03*
X185900D02*
D03*
X190900D02*
D03*
X195900D02*
D03*
X200900D02*
D03*
Y173301D02*
D03*
X195900D02*
D03*
X190900D02*
D03*
X185900D02*
D03*
X180900D02*
D03*
X175900D02*
D03*
X205900Y135899D02*
D03*
Y173301D02*
D03*
D37*
X135300Y194200D02*
D03*
X125100D02*
D03*
X135300Y201800D02*
D03*
X125100Y198000D02*
D03*
Y201800D02*
D03*
X133500Y105500D02*
D03*
X123300D02*
D03*
X133500Y113100D02*
D03*
X123300Y109300D02*
D03*
Y113100D02*
D03*
D38*
X184000Y184800D02*
D03*
X175000D02*
D03*
D39*
X218500Y149443D02*
D03*
Y157317D02*
D03*
Y167159D02*
D03*
Y139600D02*
D03*
D40*
X229169Y127513D02*
D03*
Y179246D02*
D03*
D41*
X201100Y197000D02*
D03*
D42*
X191100D02*
D03*
X181100D02*
D03*
X171100D02*
D03*
X161100D02*
D03*
X110000Y133300D02*
D03*
Y143300D02*
D03*
Y183300D02*
D03*
Y173300D02*
D03*
Y163300D02*
D03*
Y153300D02*
D03*
Y123300D02*
D03*
Y113300D02*
D03*
D43*
Y193300D02*
D03*
D44*
X238600Y111200D02*
D03*
Y195400D02*
D03*
M02*
